<?xml version="1.0" encoding="UTF-8"?>
<svg width="80px" height="20px" viewBox="0 0 80 20" xmlns="http://www.w3.org/2000/svg" xmlns:xlink="http://www.w3.org/1999/xlink" version="1.1">
 <!-- Generated by Pixelmator Pro 1.5.3 -->
 <g id="LOGO_SygnetLogotyp-Copy">
  <g id="Horizontal">
   <g id="TYPEFACEwhite">
    <path id="Path-2" d="M9.387 11.613 L9.387 14.683 6.569 14.683 6.569 11.577 3.416 6.222 6.39 6.222 8.098 9.147 9.817 6.222 12.54 6.222 Z" fill="#304755" fill-opacity="1" stroke="none"/>
    <path id="Path-3" d="M17.171 14.821 C15.883 14.821 14.879 14.473 14.159 13.777 13.439 13.08 13.079 12.103 13.079 10.846 L13.079 6.222 15.911 6.222 15.911 10.762 C15.911 11.379 16.021 11.827 16.241 12.107 16.461 12.387 16.779 12.528 17.195 12.528 17.611 12.528 17.929 12.387 18.149 12.107 18.37 11.827 18.479 11.379 18.479 10.762 L18.479 6.222 21.264 6.222 21.264 10.846 C21.264 12.103 20.904 13.08 20.184 13.777 19.464 14.473 18.459 14.821 17.171 14.821 Z" fill="#304755" fill-opacity="1" stroke="none"/>
    <path id="Path-4" d="M29.282 14.62 L29.258 10.764 27.439 13.859 26.194 13.859 24.375 10.897 24.375 14.62 21.802 14.62 21.802 6.159 24.124 6.159 26.852 10.668 29.509 6.159 31.83 6.159 31.854 14.62 Z" fill="#304755" fill-opacity="1" stroke="none"/>
    <path id="Shape" d="M39.012 13.145 L35.828 13.145 35.266 14.62 32.393 14.62 36.056 6.159 38.833 6.159 42.495 14.62 39.575 14.62 Z M38.259 11.095 L37.444 8.979 36.63 11.095 Z" fill="#304755" fill-opacity="1" stroke="none"/>
    <path id="Path-5" d="M46.687 14.821 C45.993 14.821 45.316 14.743 44.657 14.587 43.998 14.43 43.458 14.219 43.034 13.955 L43.945 11.884 C44.344 12.116 44.791 12.303 45.286 12.444 45.781 12.584 46.256 12.654 46.711 12.654 47.103 12.654 47.382 12.616 47.55 12.54 47.717 12.464 47.801 12.349 47.801 12.197 47.801 12.02 47.691 11.888 47.472 11.799 47.252 11.711 46.891 11.615 46.388 11.51 45.741 11.374 45.202 11.228 44.771 11.071 44.34 10.915 43.964 10.658 43.645 10.3 43.326 9.943 43.166 9.46 43.166 8.85 43.166 8.32 43.314 7.838 43.609 7.405 43.905 6.971 44.346 6.63 44.933 6.381 45.52 6.133 46.232 6.008 47.071 6.008 47.646 6.008 48.21 6.07 48.765 6.195 49.32 6.319 49.809 6.502 50.233 6.743 L49.382 8.802 C48.56 8.384 47.781 8.175 47.047 8.175 46.32 8.175 45.957 8.352 45.957 8.705 45.957 8.874 46.065 9 46.28 9.084 46.496 9.169 46.851 9.259 47.346 9.355 47.985 9.476 48.524 9.614 48.963 9.771 49.402 9.927 49.783 10.182 50.107 10.535 50.43 10.888 50.592 11.37 50.592 11.98 50.592 12.51 50.444 12.989 50.149 13.419 49.853 13.848 49.412 14.189 48.825 14.442 48.238 14.695 47.526 14.821 46.687 14.821 Z" fill="#304755" fill-opacity="1" stroke="none"/>
    <path id="Shape-1" d="M55.856 14.821 C54.955 14.821 54.145 14.633 53.428 14.256 52.71 13.878 52.148 13.355 51.741 12.684 51.334 12.014 51.131 11.258 51.131 10.415 51.131 9.572 51.334 8.816 51.741 8.145 52.148 7.475 52.71 6.951 53.428 6.574 54.145 6.197 54.955 6.008 55.856 6.008 56.757 6.008 57.567 6.197 58.284 6.574 59.002 6.951 59.564 7.475 59.971 8.145 60.378 8.816 60.581 9.572 60.581 10.415 60.581 11.258 60.378 12.014 59.971 12.684 59.564 13.355 59.002 13.878 58.284 14.256 57.567 14.633 56.757 14.821 55.856 14.821 Z M55.856 12.492 C56.207 12.492 56.525 12.406 56.808 12.235 57.091 12.063 57.317 11.819 57.485 11.504 57.652 11.189 57.736 10.819 57.736 10.396 57.736 9.973 57.652 9.603 57.485 9.288 57.317 8.973 57.091 8.729 56.808 8.557 56.525 8.385 56.207 8.3 55.856 8.3 55.505 8.3 55.188 8.385 54.904 8.557 54.621 8.729 54.395 8.973 54.227 9.288 54.06 9.603 53.976 9.973 53.976 10.396 53.976 10.819 54.06 11.189 54.227 11.504 54.395 11.819 54.621 12.063 54.904 12.235 55.188 12.406 55.505 12.492 55.856 12.492 Z" fill="#304755" fill-opacity="1" stroke="none"/>
    <path id="Path-6" d="M63.948 8.311 L63.948 9.761 67.447 9.761 67.447 11.913 63.948 11.913 63.948 14.62 61.12 14.62 61.12 6.159 67.938 6.159 67.938 8.311 Z" fill="#304755" fill-opacity="1" stroke="none"/>
    <path id="Path-7" d="M70.923 8.371 L68.477 8.371 68.477 6.159 76.185 6.159 76.185 8.371 73.739 8.371 73.739 14.62 70.923 14.62 Z" fill="#304755" fill-opacity="1" stroke="none"/>
   </g>
  </g>
 </g>
</svg>
