<?xml version="1.0" encoding="UTF-8"?>
<svg width="45px" height="45px" viewBox="0 0 45 45" xmlns="http://www.w3.org/2000/svg" xmlns:xlink="http://www.w3.org/1999/xlink" version="1.1">
 <!-- Generated by Pixelmator Pro 1.5.3 -->
 <g id="LOGO_SygnetLogotyp-Copy">
  <g id="Horizontal">
   <g id="YUMASOFTSygnet-Copy">
    <defs>
     <linearGradient id="linear-gradient" gradientUnits="userSpaceOnUse" x1="16.652" y1="76.881" x2="28.511" y2="124.568">
      <stop offset="0" stop-color="#26a0da" stop-opacity="1"/>
      <stop offset="1" stop-color="#314755" stop-opacity="1"/>
     </linearGradient>
    </defs>
    <path id="backgroundBadge" d="M33.146 33.975 L25.782 41.368 C23.481 43.677 19.75 43.677 17.449 41.368 L2.721 26.583 C0.42 24.273 0.42 20.527 2.721 18.218 L17.449 3.432 C19.75 1.123 23.481 1.123 25.782 3.432 L40.511 18.218 C42.812 20.527 42.812 24.273 40.511 26.583 Z" fill-opacity="1" fill="url(#linear-gradient)" stroke="none"/>
    <path id="Combined-Shape" d="M19.552 12.213 L22.576 12.213 24.32 16.749 22.891 20.898 Z" fill="#16303d" fill-opacity="1" stroke="none"/>
    <path id="Combined-Shape-1" d="M10.585 34.474 L18.163 34.474 C19.995 34.474 21.542 34.05 22.802 33.2 24.063 32.35 25.117 30.868 25.964 28.753 L32.73 10.37 34.535 12.213 C31.451 20.743 29.309 26.683 28.111 30.034 26.313 35.061 23.632 37.115 19.671 37.115 17.031 37.115 14.899 37.115 13.277 37.115 Z" fill="#16303d" fill-opacity="1" stroke="none"/>
    <path id="Path" d="M28.112 5.735 L32.73 10.37 25.964 28.753 C25.117 30.868 24.063 32.35 22.802 33.2 21.542 34.05 19.995 34.474 18.163 34.474 16.066 34.474 12.163 34.474 10.585 34.474 10.522 34.474 8.796 32.745 5.409 29.287 5.428 29.302 16.067 29.287 18.163 29.287 18.892 29.287 19.118 29.07 19.493 28.635 L12.696 12.213 19.552 12.213 22.891 20.898 Z" fill="#ffffff" fill-opacity="1" stroke="none"/>
    <defs>
     <linearGradient id="linear-gradient-1" gradientUnits="userSpaceOnUse" x1="72.706" y1="69.143" x2="73.891" y2="75.643">
      <stop offset="0" stop-color="#ffffff" stop-opacity="1"/>
      <stop offset="0.493" stop-color="#b8ced8" stop-opacity="0.303"/>
      <stop offset="1" stop-color="#ffffff" stop-opacity="1"/>
     </linearGradient>
    </defs>
    <path id="Path-1" d="M22.891 27.844 L16.035 12.213 19.552 12.213 22.891 20.898 C23.082 21.628 23.215 22.592 23.291 23.79 23.367 24.991 23.177 25.938 22.891 27.844 Z" fill-opacity="1" fill="url(#linear-gradient-1)" stroke="none"/>
    <defs>
     <linearGradient id="linear-gradient-2" gradientUnits="userSpaceOnUse" x1="85.47" y1="62.533" x2="65.625" y2="88.243">
      <stop offset="0" stop-color="#ffffff" stop-opacity="1"/>
      <stop offset="0.593" stop-color="#b8ced8" stop-opacity="1"/>
      <stop offset="1" stop-color="#ffffff" stop-opacity="1"/>
     </linearGradient>
    </defs>
    <path id="Combined-Shape-2" d="M31.057 8.691 L32.73 10.37 25.964 28.753 C25.117 30.868 24.063 32.35 22.802 33.2 21.542 34.05 19.995 34.474 18.163 34.474 16.066 34.474 12.163 34.474 10.585 34.474 10.54 34.474 9.67 33.616 7.975 31.898 L19.069 31.898 C21.616 31.898 22.459 30.888 23.505 28.7 24.183 27.284 26.7 20.614 31.057 8.691 Z" fill-opacity="1" fill="url(#linear-gradient-2)" stroke="none"/>
   </g>
  </g>
 </g>
</svg>
