<?xml version="1.0" encoding="UTF-8"?>
<svg width="130px" height="45px" viewBox="0 0 130 45" xmlns="http://www.w3.org/2000/svg" xmlns:xlink="http://www.w3.org/1999/xlink" version="1.1">
 <!-- Generated by Pixelmator Pro 1.5.3 -->
 <g id="LOGO_SygnetLogotyp-Copy">
  <g id="Horizontal">
   <g id="YUMASOFTSygnet-Copy">
    <defs>
     <linearGradient id="linear-gradient" gradientUnits="userSpaceOnUse" x1="18.652" y1="77.881" x2="30.511" y2="125.568">
      <stop offset="0" stop-color="#26a0da" stop-opacity="1"/>
      <stop offset="1" stop-color="#314755" stop-opacity="1"/>
     </linearGradient>
    </defs>
    <path id="backgroundBadge" d="M35.146 34.975 L27.782 42.368 C25.481 44.677 21.75 44.677 19.449 42.368 L4.721 27.583 C2.42 25.273 2.42 21.527 4.721 19.218 L19.449 4.432 C21.75 2.123 25.481 2.123 27.782 4.432 L42.511 19.218 C44.812 21.527 44.812 25.273 42.511 27.583 Z" fill-opacity="1" fill="url(#linear-gradient)" stroke="none"/>
    <path id="Combined-Shape" d="M21.552 13.213 L24.576 13.213 26.32 17.749 24.891 21.898 21.552 13.213 Z" fill="#16303d" fill-opacity="1" stroke="none"/>
    <path id="Combined-Shape-1" d="M12.585 35.474 L20.163 35.474 C21.995 35.474 23.542 35.05 24.802 34.2 26.063 33.35 27.117 31.868 27.964 29.753 L34.73 11.37 36.535 13.213 C33.451 21.743 31.309 27.683 30.111 31.034 28.313 36.061 25.632 38.115 21.671 38.115 19.031 38.115 16.899 38.115 15.277 38.115 L12.585 35.474 Z" fill="#16303d" fill-opacity="1" stroke="none"/>
    <path id="Path" d="M30.112 6.735 L34.73 11.37 27.964 29.753 C27.117 31.868 26.063 33.35 24.802 34.2 23.542 35.05 21.995 35.474 20.163 35.474 18.066 35.474 14.163 35.474 12.585 35.474 12.522 35.474 10.796 33.745 7.409 30.287 7.428 30.302 18.067 30.287 20.163 30.287 20.892 30.287 21.118 30.07 21.493 29.635 L14.696 13.213 21.552 13.213 24.891 21.898 30.112 6.735 Z" fill="#ffffff" fill-opacity="1" stroke="none"/>
    <defs>
     <linearGradient id="linear-gradient-1" gradientUnits="userSpaceOnUse" x1="74.706" y1="70.143" x2="75.891" y2="76.643">
      <stop offset="0" stop-color="#ffffff" stop-opacity="1"/>
      <stop offset="0.493" stop-color="#b8ced8" stop-opacity="0.303"/>
      <stop offset="1" stop-color="#ffffff" stop-opacity="1"/>
     </linearGradient>
    </defs>
    <path id="Path-1" d="M24.891 28.844 L18.035 13.213 21.552 13.213 24.891 21.898 C25.082 22.628 25.215 23.592 25.291 24.79 25.367 25.991 25.177 26.938 24.891 28.844 Z" fill-opacity="1" fill="url(#linear-gradient-1)" stroke="none"/>
    <defs>
     <linearGradient id="linear-gradient-2" gradientUnits="userSpaceOnUse" x1="87.47" y1="63.533" x2="67.625" y2="89.243">
      <stop offset="0" stop-color="#ffffff" stop-opacity="1"/>
      <stop offset="0.593" stop-color="#b8ced8" stop-opacity="1"/>
      <stop offset="1" stop-color="#ffffff" stop-opacity="1"/>
     </linearGradient>
    </defs>
    <path id="Combined-Shape-2" d="M33.057 9.691 L34.73 11.37 27.964 29.753 C27.117 31.868 26.063 33.35 24.802 34.2 23.542 35.05 21.995 35.474 20.163 35.474 18.066 35.474 14.163 35.474 12.585 35.474 12.54 35.474 11.67 34.616 9.975 32.898 15.687 32.898 19.385 32.898 21.069 32.898 23.616 32.898 24.459 31.888 25.505 29.7 26.183 28.284 28.7 21.614 33.057 9.691 Z" fill-opacity="1" fill="url(#linear-gradient-2)" stroke="none"/>
   </g>
   <g id="TYPEFACEwhite">
    <path id="Path-2" d="M59.387 24.613 L59.387 27.683 56.569 27.683 56.569 24.577 53.416 19.222 56.39 19.222 58.098 22.147 59.817 19.222 62.54 19.222 Z" fill="#ffffff" fill-opacity="1" stroke="none"/>
    <path id="Path-3" d="M67.171 27.821 C65.883 27.821 64.879 27.473 64.159 26.777 63.439 26.08 63.079 25.103 63.079 23.846 L63.079 19.222 65.911 19.222 65.911 23.762 C65.911 24.379 66.021 24.827 66.241 25.107 66.461 25.387 66.779 25.528 67.195 25.528 67.611 25.528 67.929 25.387 68.149 25.107 68.37 24.827 68.479 24.379 68.479 23.762 L68.479 19.222 71.264 19.222 71.264 23.846 C71.264 25.103 70.904 26.08 70.184 26.777 69.464 27.473 68.459 27.821 67.171 27.821 Z" fill="#ffffff" fill-opacity="1" stroke="none"/>
    <path id="Path-4" d="M79.282 27.62 L79.258 23.764 77.439 26.859 76.194 26.859 74.375 23.897 74.375 27.62 71.802 27.62 71.802 19.159 74.124 19.159 76.852 23.668 79.509 19.159 81.83 19.159 81.854 27.62 Z" fill="#ffffff" fill-opacity="1" stroke="none"/>
    <path id="Shape" d="M89.012 26.145 L85.828 26.145 85.266 27.62 82.393 27.62 86.056 19.159 88.833 19.159 92.495 27.62 89.575 27.62 89.012 26.145 Z M88.259 24.095 L87.444 21.979 86.63 24.095 88.259 24.095 Z" fill="#ffffff" fill-opacity="1" stroke="none"/>
    <path id="Path-5" d="M96.687 27.821 C95.993 27.821 95.316 27.743 94.657 27.587 93.998 27.43 93.458 27.219 93.034 26.955 L93.945 24.884 C94.344 25.116 94.791 25.303 95.286 25.444 95.781 25.584 96.256 25.654 96.711 25.654 97.103 25.654 97.382 25.616 97.55 25.54 97.717 25.464 97.801 25.349 97.801 25.197 97.801 25.02 97.691 24.888 97.472 24.799 97.252 24.711 96.891 24.615 96.388 24.51 95.741 24.374 95.202 24.228 94.771 24.071 94.34 23.915 93.964 23.658 93.645 23.3 93.326 22.943 93.166 22.46 93.166 21.85 93.166 21.32 93.314 20.838 93.609 20.405 93.905 19.971 94.346 19.63 94.933 19.381 95.52 19.133 96.232 19.008 97.071 19.008 97.646 19.008 98.21 19.07 98.765 19.195 99.32 19.319 99.809 19.502 100.233 19.743 L99.382 21.802 C98.56 21.384 97.781 21.175 97.047 21.175 96.32 21.175 95.957 21.352 95.957 21.705 95.957 21.874 96.065 22 96.28 22.084 96.496 22.169 96.851 22.259 97.346 22.355 97.985 22.476 98.524 22.614 98.963 22.771 99.402 22.927 99.783 23.182 100.107 23.535 100.43 23.888 100.592 24.37 100.592 24.98 100.592 25.51 100.444 25.989 100.149 26.419 99.853 26.848 99.412 27.189 98.825 27.442 98.238 27.695 97.526 27.821 96.687 27.821 Z" fill="#ffffff" fill-opacity="1" stroke="none"/>
    <path id="Shape-1" d="M105.856 27.821 C104.955 27.821 104.145 27.633 103.428 27.256 102.71 26.878 102.148 26.355 101.741 25.684 101.334 25.014 101.131 24.258 101.131 23.415 101.131 22.572 101.334 21.816 101.741 21.145 102.148 20.475 102.71 19.951 103.428 19.574 104.145 19.197 104.955 19.008 105.856 19.008 106.757 19.008 107.567 19.197 108.284 19.574 109.002 19.951 109.564 20.475 109.971 21.145 110.378 21.816 110.581 22.572 110.581 23.415 110.581 24.258 110.378 25.014 109.971 25.684 109.564 26.355 109.002 26.878 108.284 27.256 107.567 27.633 106.757 27.821 105.856 27.821 Z M105.856 25.492 C106.207 25.492 106.525 25.406 106.808 25.235 107.091 25.063 107.317 24.819 107.485 24.504 107.652 24.189 107.736 23.819 107.736 23.396 107.736 22.973 107.652 22.603 107.485 22.288 107.317 21.973 107.091 21.729 106.808 21.557 106.525 21.385 106.207 21.3 105.856 21.3 105.505 21.3 105.188 21.385 104.904 21.557 104.621 21.729 104.395 21.973 104.227 22.288 104.06 22.603 103.976 22.973 103.976 23.396 103.976 23.819 104.06 24.189 104.227 24.504 104.395 24.819 104.621 25.063 104.904 25.235 105.188 25.406 105.505 25.492 105.856 25.492 Z" fill="#ffffff" fill-opacity="1" stroke="none"/>
    <path id="Path-6" d="M113.948 21.311 L113.948 22.761 117.447 22.761 117.447 24.913 113.948 24.913 113.948 27.62 111.12 27.62 111.12 19.159 117.938 19.159 117.938 21.311 Z" fill="#ffffff" fill-opacity="1" stroke="none"/>
    <path id="Path-7" d="M120.923 21.371 L118.477 21.371 118.477 19.159 126.185 19.159 126.185 21.371 123.739 21.371 123.739 27.62 120.923 27.62 Z" fill="#ffffff" fill-opacity="1" stroke="none"/>
   </g>
  </g>
 </g>
</svg>
